<svg xmlns="http://www.w3.org/2000/svg" viewBox="0 0 754.2 1845.1" width="754.2" height="1845.1" role="img" aria-label="Slide 6 interface wireframe (2 of 2)"><title>Slide 6 interface wireframe (2 of 2)</title><desc>Interface screenshot redrawn as a standardized wireframe: 1 panel, 1 field, 2 buttons, 1 colour block, 15 row separators, 4 icons, 30 text rows. 26 of 30 text rows carry text transcribed from the screenshot (OCR, approximate); the rest render as placeholder bars; positions are approximate to the source image and colours are mapped to the corpus palette.</desc><style>.plate{fill:#FFFFFF;stroke:#D7DFDF;stroke-width:1}.ln{fill:none;stroke-linecap:round;stroke-linejoin:round}.route{stroke:#16302F;stroke-width:3;stroke-dasharray:10 6;stroke-linecap:butt}.ctx{stroke:#B9C6C6;stroke-width:2.4}.event{stroke-width:8}.flat{stroke-linecap:butt}.tick{stroke:#6E8285;stroke-width:1.15}.maj{stroke:#4E6265;stroke-width:1.4}.leader{stroke:#6E8285;stroke-width:1}.split{stroke:#16302F;stroke-width:1.4;stroke-dasharray:3 2.5;opacity:.55}.splitdot{fill:#FFFFFF;stroke:#16302F;stroke-width:1.6}.edge{stroke:#4E6265;stroke-width:1.8}.free{stroke-width:2.2}.freefill{stroke-width:2.2;stroke-linejoin:round}.dashed{stroke-dasharray:7 4.5}.dotted{stroke-dasharray:1.6 3.6}.node{fill:#FFFFFF;stroke:#16302F;stroke-width:1.6}.t-plain{fill:#FFFFFF}.t-ink{fill:#E9EDED}.t-muted{fill:#EFF2F2}.t-cool{fill:#E5F0F5}.t-warm{fill:#F9F0E2}.t-green{fill:#E6F2EC}.t-violet{fill:#EFEAF7}.t-red{fill:#F8E9E5}.nlabel{font-size:12px;fill:#16302F;font-weight:500}.swatch{stroke-width:5}.legend{font-size:10.5px;fill:#4E6265}.s-ink{stroke:#16302F}.f-ink{fill:#16302F}.s-muted{stroke:#6E8285}.f-muted{fill:#6E8285}.s-cool{stroke:#1B6E8C}.f-cool{fill:#1B6E8C}.s-warm{stroke:#C2701A}.f-warm{fill:#9C5A12}.s-green{stroke:#2E7D5B}.f-green{fill:#2E7D5B}.s-violet{stroke:#7A5AA6}.f-violet{fill:#7A5AA6}.s-red{stroke:#B2442F}.f-red{fill:#B2442F}.event.s-cool,.swatch.s-cool{stroke:#4FA7D5}.event.s-warm,.swatch.s-warm{stroke:#E39A45}.event.s-green,.swatch.s-green{stroke:#4EB183}.event.s-violet,.swatch.s-violet{stroke:#A58BD3}.event.s-red,.swatch.s-red{stroke:#DC8168}.wf-panel{fill:#FFFFFF;stroke:#6E8285;stroke-width:1.4}.wf-box{fill:none;stroke:#6E8285;stroke-width:1.1}.wf-field{fill:#FFFFFF;stroke:#6E8285;stroke-width:1.1}.wf-btn{stroke-width:1.2}.wf-sep{stroke:#D7DFDF;stroke-width:1}.wf-gk{fill:#B9C6C6}.wf-gkh{fill:#4E6265}.wf-gkp{fill:#FFFFFF}.wf-ico{fill:#EFF2F2;stroke:#6E8285;stroke-width:1.1}.wf-tx{fill:#4E6265}.wf-txh{fill:#16302F;font-weight:600}.wf-txp{fill:#16302F;font-weight:500}text{font-family:'Segoe UI',system-ui,Roboto,'Helvetica Neue',Arial,sans-serif}.measure{font-size:11px;fill:#6E8285;font-variant-numeric:tabular-nums}.id{font-size:12.5px;font-weight:600}.note{font-size:12px;fill:#16302F}</style><defs><marker id="ar" viewBox="0 0 8 8" refX="6" refY="4" markerWidth="4.4" markerHeight="4.4" orient="auto-start-reverse"><path d="M0 0.7 L8 4 L0 7.3 z" fill="#16302F"/></marker><marker id="ae" viewBox="0 0 8 8" refX="6" refY="4" markerWidth="4.4" markerHeight="4.4" orient="auto-start-reverse"><path d="M0 0.7 L8 4 L0 7.3 z" fill="#4E6265"/></marker></defs><rect class="plate" x="1" y="1" width="752.2" height="1843.1" rx="6"/><g transform="translate(17.1,17.1)"><rect class="wf-panel" x="2.9" y="2.9" width="714.2" height="1805.1" rx="7"/><rect class="wf-btn t-muted s-muted" x="45" y="788.6" width="419.5" height="35.1" rx="4"/><rect class="wf-box" x="587.1" y="335.2" width="53.7" height="48.2" rx="4"/><rect class="wf-box" x="601.7" y="650.6" width="39.1" height="48.2" rx="4"/><rect class="wf-box" x="267.3" y="1394" width="21.9" height="21.9" rx="4"/><rect class="wf-field" x="480.5" y="1734.3" width="192.8" height="54" rx="4"/><line class="ln wf-sep" x1="29.2" y1="333.7" x2="560.8" y2="333.7"/><line class="ln wf-sep" x1="29.2" y1="384.8" x2="562.3" y2="384.8"/><line class="ln wf-sep" x1="118.3" y1="455.7" x2="692.3" y2="455.7"/><line class="ln wf-sep" x1="39.4" y1="542.6" x2="566.7" y2="542.6"/><line class="ln wf-sep" x1="39.4" y1="592.2" x2="566.7" y2="592.2"/><line class="ln wf-sep" x1="43.8" y1="649.2" x2="576.9" y2="649.2"/><line class="ln wf-sep" x1="43.8" y1="700.3" x2="576.9" y2="700.3"/><line class="ln wf-sep" x1="42.4" y1="785" x2="644.1" y2="785"/><line class="ln wf-sep" x1="42.4" y1="947.1" x2="644.1" y2="947.1"/><line class="ln wf-sep" x1="48.2" y1="1033.3" x2="575.4" y2="1033.3"/><line class="ln wf-sep" x1="48.2" y1="1082.9" x2="575.4" y2="1082.9"/><line class="ln wf-sep" x1="48.2" y1="1161.8" x2="576.9" y2="1161.8"/><line class="ln wf-sep" x1="48.2" y1="1212.9" x2="576.9" y2="1212.9"/><line class="ln wf-sep" x1="48.2" y1="1296.1" x2="578.3" y2="1296.1"/><line class="ln wf-sep" x1="48.2" y1="1345.8" x2="578.3" y2="1345.8"/><line class="ln wf-sep" x1="48.2" y1="227.8" x2="197.2" y2="227.8"/><rect class="wf-btn t-muted s-muted" x="615.6" y="666" width="25.2" height="17.5" rx="4"/><rect class="wf-btn t-muted s-muted" x="464.4" y="788.6" width="176.3" height="35.1" rx="4"/><text class="wf-txh" x="45" y="50.7" font-size="15">Geoprocessing</text><text class="wf-txh" x="615.6" y="50.7" font-size="15">ax</text><rect class="wf-ico" x="45" y="94.6" width="16.4" height="42.4" rx="2.5"/><text class="wf-txh" x="86.2" y="120.4" font-size="15">Configure Route Dominance Rules</text><text class="wf-tx" x="86.2" y="228.2" font-size="13.1">Parameters</text><text class="wf-tx" x="246.8" y="228.8" font-size="15">Environments</text><rect class="wf-ico" x="668.9" y="208.8" width="32.1" height="30.7" rx="2.5"/><text class="wf-tx" x="45" y="315" font-size="15">Network</text><text class="wf-tx" x="45" y="363.2" font-size="15">Network1</text><rect class="wf-gk" x="543" y="353.9" width="10.5" height="7.9" rx="3.9"/><text class="wf-tx" x="45" y="455.9" font-size="15">Rule1</text><text class="wf-tx" x="45" y="526.8" font-size="15">Arrangement</text><text class="wf-tx" x="45" y="572.1" font-size="15">Defined</text><rect class="wf-gk" x="543" y="562.7" width="16.4" height="7.9" rx="3.9"/><text class="wf-tx" x="45" y="634.9" font-size="15">Layer</text><text class="wf-tx" x="45" y="678.7" font-size="15">Functional Class</text><rect class="wf-gk" x="543" y="669.3" width="25.1" height="7.9" rx="3.9"/><text class="wf-tx" x="45" y="753.1" font-size="15">Fields</text><text class="wf-tx" x="45" y="858.3" font-size="15">Functional Class</text><text class="wf-tx" x="220.5" y="856.7" font-size="10.5">Class</text><text class="wf-tx" x="512.6" y="856.7" font-size="10.5">Integer</text><text class="wf-tx" x="45" y="1017.5" font-size="15">Sorting</text><text class="wf-tx" x="45" y="1063.1" font-size="15">Lesser</text><rect class="wf-gk" x="543" y="1053.8" width="25.1" height="7.9" rx="3.9"/><text class="wf-tx" x="45" y="1146.7" font-size="15">Ordering</text><text class="wf-tx" x="45" y="1191.6" font-size="15">Numeric</text><text class="wf-tx" x="543" y="1190.5" font-size="11.8">Ir)</text><text class="wf-tx" x="45" y="1276.7" font-size="15">Exceptions</text><text class="wf-tx" x="138.7" y="1276.1" font-size="13.1">Exceptions</text><rect class="wf-ico" x="45" y="1310" width="39.7" height="20.4" rx="2.5"/><text class="wf-tx" x="45" y="1408.2" font-size="15">Add Another</text><text class="wf-tx" x="191.3" y="1405.6" font-size="8">Another</text><rect class="wf-ico" x="267.3" y="1388.2" width="29.2" height="30.7" rx="2.5"/><text class="wf-txh" x="496.6" y="1766.7" font-size="15">© Run</text></g></svg>