<svg xmlns="http://www.w3.org/2000/svg" viewBox="0 0 664.4 1258.8" width="664.4" height="1258.8" role="img" aria-label="Slide 44 interface wireframe"><title>Slide 44 interface wireframe</title><desc>Interface screenshot redrawn as a standardized wireframe: 1 panel, 9 buttons, 5 colour blocks, 2 row separators, 54 text rows. Text inside a screenshot is pixels, so text rows render as placeholder bars; positions are approximate to the source image and colours are mapped to the corpus palette.</desc><style>.plate{fill:#FFFFFF;stroke:#D7DFDF;stroke-width:1}.ln{fill:none;stroke-linecap:round;stroke-linejoin:round}.route{stroke:#16302F;stroke-width:3;stroke-dasharray:10 6;stroke-linecap:butt}.ctx{stroke:#B9C6C6;stroke-width:2.4}.event{stroke-width:8}.flat{stroke-linecap:butt}.tick{stroke:#6E8285;stroke-width:1.15}.maj{stroke:#4E6265;stroke-width:1.4}.leader{stroke:#6E8285;stroke-width:1}.split{stroke:#16302F;stroke-width:1.4;stroke-dasharray:3 2.5;opacity:.55}.splitdot{fill:#FFFFFF;stroke:#16302F;stroke-width:1.6}.edge{stroke:#4E6265;stroke-width:1.8}.free{stroke-width:2.2}.freefill{stroke-width:2.2;stroke-linejoin:round}.dashed{stroke-dasharray:7 4.5}.dotted{stroke-dasharray:1.6 3.6}.node{fill:#FFFFFF;stroke:#16302F;stroke-width:1.6}.t-plain{fill:#FFFFFF}.t-ink{fill:#E9EDED}.t-muted{fill:#EFF2F2}.t-cool{fill:#E5F0F5}.t-warm{fill:#F9F0E2}.t-green{fill:#E6F2EC}.t-violet{fill:#EFEAF7}.t-red{fill:#F8E9E5}.nlabel{font-size:12px;fill:#16302F;font-weight:500}.swatch{stroke-width:5}.legend{font-size:10.5px;fill:#4E6265}.s-ink{stroke:#16302F}.f-ink{fill:#16302F}.s-muted{stroke:#6E8285}.f-muted{fill:#6E8285}.s-cool{stroke:#1B6E8C}.f-cool{fill:#1B6E8C}.s-warm{stroke:#C2701A}.f-warm{fill:#9C5A12}.s-green{stroke:#2E7D5B}.f-green{fill:#2E7D5B}.s-violet{stroke:#7A5AA6}.f-violet{fill:#7A5AA6}.s-red{stroke:#B2442F}.f-red{fill:#B2442F}.event.s-cool,.swatch.s-cool{stroke:#4FA7D5}.event.s-warm,.swatch.s-warm{stroke:#E39A45}.event.s-green,.swatch.s-green{stroke:#4EB183}.event.s-violet,.swatch.s-violet{stroke:#A58BD3}.event.s-red,.swatch.s-red{stroke:#DC8168}.wf-panel{fill:#FFFFFF;stroke:#6E8285;stroke-width:1.4}.wf-box{fill:none;stroke:#6E8285;stroke-width:1.1}.wf-field{fill:#FFFFFF;stroke:#6E8285;stroke-width:1.1}.wf-btn{stroke-width:1.2}.wf-sep{stroke:#D7DFDF;stroke-width:1}.wf-gk{fill:#B9C6C6}.wf-gkh{fill:#4E6265}.wf-gkp{fill:#FFFFFF}text{font-family:'Segoe UI',system-ui,Roboto,'Helvetica Neue',Arial,sans-serif}.measure{font-size:11px;fill:#6E8285;font-variant-numeric:tabular-nums}.id{font-size:12.5px;font-weight:600}.note{font-size:12px;fill:#16302F}</style><defs><marker id="ar" viewBox="0 0 8 8" refX="6" refY="4" markerWidth="4.4" markerHeight="4.4" orient="auto-start-reverse"><path d="M0 0.7 L8 4 L0 7.3 z" fill="#16302F"/></marker><marker id="ae" viewBox="0 0 8 8" refX="6" refY="4" markerWidth="4.4" markerHeight="4.4" orient="auto-start-reverse"><path d="M0 0.7 L8 4 L0 7.3 z" fill="#4E6265"/></marker></defs><rect class="plate" x="1" y="1" width="662.4" height="1256.8" rx="6"/><g transform="translate(-27.8,-23.7)"><rect class="wf-panel" x="497" y="204" width="19.3" height="270.1" rx="7"/><rect class="wf-btn t-red s-red" x="497" y="204" width="19.3" height="13.5" rx="4"/><rect class="wf-btn t-red s-red" x="497" y="225" width="19.3" height="15" rx="4"/><rect class="wf-btn t-red s-red" x="497" y="433.1" width="19.3" height="11.3" rx="4"/><rect class="wf-btn t-red s-red" x="497" y="461.3" width="19.3" height="12.9" rx="4"/><rect class="wf-btn t-cool s-cool" x="80.9" y="762.9" width="21.8" height="12.1" rx="4"/><rect class="wf-box" x="80.9" y="762.9" width="21.8" height="12.1" rx="4"/><line class="ln wf-sep" x1="494.1" y1="431.3" x2="511.9" y2="431.3"/><line class="ln wf-sep" x1="495" y1="432.2" x2="510.9" y2="432.2"/><line class="ln wf-sep" x1="533.4" y1="55.3" x2="622.5" y2="55.3"/><line class="ln wf-sep" x1="60" y1="92.8" x2="523.1" y2="92.8"/><line class="ln wf-sep" x1="61.9" y1="92.8" x2="521.3" y2="92.8"/><line class="ln wf-sep" x1="536.3" y1="110.2" x2="672.2" y2="110.2"/><line class="ln wf-sep" x1="59.1" y1="129.8" x2="524.1" y2="129.8"/><line class="ln wf-sep" x1="234.4" y1="174.4" x2="631.9" y2="174.4"/><line class="ln wf-sep" x1="103.1" y1="176.7" x2="553.1" y2="176.7"/><line class="ln wf-sep" x1="242.8" y1="182.8" x2="629.1" y2="182.8"/><line class="ln wf-sep" x1="273.8" y1="243.3" x2="511.9" y2="243.3"/><line class="ln wf-sep" x1="103.1" y1="250.8" x2="513.8" y2="250.8"/><line class="ln wf-sep" x1="95.6" y1="260.6" x2="536.3" y2="260.6"/><line class="ln wf-sep" x1="249.4" y1="277.5" x2="497.8" y2="277.5"/><line class="ln wf-sep" x1="47.8" y1="352.5" x2="351.6" y2="352.5"/><line class="ln wf-sep" x1="367.5" y1="352.5" x2="670.3" y2="352.5"/><line class="ln wf-sep" x1="49.7" y1="353.4" x2="350.6" y2="353.4"/><line class="ln wf-sep" x1="368.4" y1="353.4" x2="668.4" y2="353.4"/><line class="ln wf-sep" x1="60" y1="382.5" x2="351.6" y2="382.5"/><line class="ln wf-sep" x1="60.9" y1="382.5" x2="350.6" y2="382.5"/><line class="ln wf-sep" x1="365.6" y1="399.8" x2="671.3" y2="399.8"/><line class="ln wf-sep" x1="59.1" y1="419.1" x2="351.6" y2="419.1"/><line class="ln wf-sep" x1="60.9" y1="419.1" x2="347.8" y2="419.1"/><line class="ln wf-sep" x1="225.9" y1="560.2" x2="660" y2="560.2"/><line class="ln wf-sep" x1="65.6" y1="561.6" x2="658.1" y2="561.6"/><line class="ln wf-sep" x1="59.1" y1="564.4" x2="529.7" y2="564.4"/><line class="ln wf-sep" x1="60" y1="609.4" x2="659.1" y2="609.4"/><line class="ln wf-sep" x1="59.1" y1="610.3" x2="660" y2="610.3"/><line class="ln wf-sep" x1="47.8" y1="633.3" x2="351.6" y2="633.3"/><line class="ln wf-sep" x1="367.5" y1="633.3" x2="671.3" y2="633.3"/><line class="ln wf-sep" x1="58.1" y1="663.3" x2="401.3" y2="663.3"/><line class="ln wf-sep" x1="416.3" y1="681.1" x2="669.4" y2="681.1"/><line class="ln wf-sep" x1="58.1" y1="699.8" x2="404.1" y2="699.8"/><line class="ln wf-sep" x1="48.8" y1="915.9" x2="352.5" y2="915.9"/><line class="ln wf-sep" x1="51.6" y1="915.9" x2="428.4" y2="915.9"/><line class="ln wf-sep" x1="366.6" y1="915.9" x2="668.4" y2="915.9"/><line class="ln wf-sep" x1="367.5" y1="915.9" x2="670.3" y2="915.9"/><line class="ln wf-sep" x1="60.9" y1="945.9" x2="438.8" y2="945.9"/><line class="ln wf-sep" x1="61.9" y1="945.9" x2="435" y2="945.9"/><line class="ln wf-sep" x1="452.8" y1="963.3" x2="672.2" y2="963.3"/><line class="ln wf-sep" x1="71.3" y1="981.6" x2="436.9" y2="981.6"/><line class="ln wf-sep" x1="60.9" y1="982.5" x2="437.8" y2="982.5"/><line class="ln wf-sep" x1="47.8" y1="1202.8" x2="670.3" y2="1202.8"/><line class="ln wf-sep" x1="50.6" y1="1203.8" x2="668.4" y2="1203.8"/><rect class="wf-btn t-cool s-cool" x="605.4" y="168.8" width="24.6" height="11.3" rx="4"/><rect class="wf-btn t-muted s-muted" x="268.1" y="204" width="30" height="13.5" rx="4"/><rect class="wf-btn t-muted s-muted" x="377.4" y="204" width="24.7" height="13.5" rx="4"/><rect class="wf-btn t-muted s-muted" x="268.1" y="225" width="30" height="15" rx="4"/><rect class="wf-btn t-muted s-muted" x="377.4" y="225" width="24.7" height="15" rx="4"/><rect class="wf-btn t-red s-red" x="523.1" y="731.3" width="22.5" height="11.3" rx="4"/><rect class="wf-btn t-red s-red" x="523.1" y="753.8" width="22.5" height="21.2" rx="4"/><rect class="wf-btn t-cool s-cool" x="241.9" y="776.3" width="45" height="22.5" rx="4"/><rect class="wf-btn t-cool s-cool" x="347.6" y="1113.8" width="23.6" height="16.9" rx="4"/><rect class="wf-gkh" x="48.8" y="43.7" width="65.6" height="12" rx="6"/><rect class="wf-gkh" x="147.2" y="43.7" width="117.2" height="12" rx="6"/><rect class="wf-gk" x="277.5" y="44.9" width="29.1" height="9.6" rx="4.8"/><rect class="wf-gkh" x="320.6" y="43.7" width="198.8" height="12" rx="6"/><rect class="wf-gkh" x="533.4" y="43.7" width="60" height="12" rx="6"/><rect class="wf-gkh" x="629.4" y="43.7" width="42.8" height="12" rx="6"/><rect class="wf-gkh" x="80.9" y="107" width="433.8" height="12" rx="6"/><rect class="wf-gk" x="497" y="152.4" width="46.7" height="7.9" rx="3.9"/><rect class="wf-gk" x="605.4" y="154.1" width="24.6" height="4.5" rx="2.3"/><rect class="wf-gk" x="304.7" y="167.2" width="44.1" height="5.6" rx="2.8"/><rect class="wf-gk" x="377.4" y="167.5" width="21" height="5.1" rx="2.5"/><rect class="wf-gk" x="439.7" y="167.8" width="15.9" height="4.5" rx="2.3"/><rect class="wf-gk" x="147.2" y="211.4" width="14.1" height="7.9" rx="3.9"/><rect class="wf-gk" x="268.1" y="213.1" width="16.9" height="4.5" rx="2.3"/><rect class="wf-gk" x="587.8" y="210.5" width="71.3" height="9.6" rx="4.8"/><rect class="wf-gk" x="497" y="221" width="24.2" height="6.2" rx="3.1"/><rect class="wf-gk" x="126.6" y="248.4" width="18.8" height="9" rx="4.5"/><rect class="wf-gkh" x="361.4" y="246.9" width="68.9" height="12" rx="6"/><rect class="wf-gkh" x="251.7" y="268.2" width="56.7" height="12" rx="6"/><rect class="wf-gkh" x="605.4" y="268.2" width="36.8" height="12" rx="6"/><rect class="wf-gk" x="361.4" y="289.6" width="54.8" height="9.6" rx="4.8"/><rect class="wf-gk" x="587.8" y="305" width="74.1" height="7.9" rx="3.9"/><rect class="wf-gk" x="587.8" y="324.1" width="69.4" height="9" rx="4.5"/><rect class="wf-gkh" x="347.6" y="358.7" width="24.6" height="12" rx="6"/><rect class="wf-gkh" x="60.9" y="390.6" width="304.7" height="12" rx="6"/><rect class="wf-gk" x="347.6" y="404.3" width="18.9" height="10.7" rx="5.3"/><rect class="wf-gkp" x="497" y="437.9" width="28" height="12" rx="6"/><rect class="wf-gkh" x="377.4" y="467.9" width="50.1" height="12" rx="6"/><rect class="wf-gk" x="377.4" y="484.4" width="24.7" height="6.2" rx="3.1"/><rect class="wf-gk" x="205.3" y="548.9" width="24.4" height="5.6" rx="2.8"/><rect class="wf-gk" x="126.6" y="565.4" width="30" height="7.3" rx="3.7"/><rect class="wf-gkh" x="347.6" y="639" width="24.6" height="12" rx="6"/><rect class="wf-gk" x="80.9" y="676" width="314.7" height="10.1" rx="5.1"/><rect class="wf-gkp" x="497" y="731.8" width="53.3" height="12" rx="6"/><rect class="wf-gkh" x="605.4" y="736.5" width="36.8" height="12" rx="6"/><rect class="wf-gk" x="605.4" y="780.1" width="42.4" height="7.3" rx="3.7"/><rect class="wf-gk" x="80.9" y="804.1" width="33.5" height="9" rx="4.5"/><rect class="wf-gk" x="587.8" y="797.9" width="68.4" height="7.3" rx="3.7"/><rect class="wf-gk" x="80.9" y="823.9" width="48.5" height="7.3" rx="3.7"/><rect class="wf-gk" x="171.6" y="831.7" width="19.7" height="4.5" rx="2.3"/><rect class="wf-gk" x="251.7" y="824.8" width="21.1" height="5.6" rx="2.8"/><rect class="wf-gk" x="347.6" y="921.7" width="24.6" height="12" rx="6"/><rect class="wf-gkh" x="80.9" y="958.2" width="371.9" height="12" rx="6"/><rect class="wf-gk" x="226.9" y="989.9" width="26.3" height="7.3" rx="3.7"/><rect class="wf-gkh" x="293.4" y="996" width="12.2" height="12" rx="6"/><rect class="wf-gkh" x="414.4" y="996" width="13.1" height="12" rx="6"/><rect class="wf-gk" x="570" y="991.3" width="24.4" height="4.5" rx="2.3"/><rect class="wf-gk" x="629.4" y="998.7" width="29.7" height="6.8" rx="3.4"/><rect class="wf-gk" x="629.4" y="1095.5" width="29.7" height="11.3" rx="5.6"/><rect class="wf-gk" x="497" y="1140.5" width="138.6" height="11.3" rx="5.6"/><rect class="wf-gk" x="497" y="1162" width="158.3" height="8.4" rx="4.2"/><rect class="wf-gk" x="431.3" y="1172.2" width="16.9" height="7.9" rx="3.9"/><rect class="wf-gk" x="449.1" y="1180.9" width="19.7" height="4.5" rx="2.3"/><rect class="wf-gk" x="164.1" y="1254.7" width="390" height="7.9" rx="3.9"/></g></svg>