<svg xmlns="http://www.w3.org/2000/svg" xmlns:xlink="http://www.w3.org/1999/xlink" viewBox="410.7 58.7 1667.4 889.1" width="1667.4" height="889.1" data-slide="27" data-shapes="61" data-connectors="22"><title>Slide 27 drawing — 61 shapes, 22 connectors</title><defs><marker id="ah-808080" viewBox="0 0 10 10" refX="9" refY="5" markerWidth="7" markerHeight="7" orient="auto-start-reverse"><path d="M 0 0 L 10 5 L 0 10 Z" fill="#808080"/></marker><marker id="ah-953735" viewBox="0 0 10 10" refX="9" refY="5" markerWidth="7" markerHeight="7" orient="auto-start-reverse"><path d="M 0 0 L 10 5 L 0 10 Z" fill="#953735"/></marker><marker id="ah-4472C4" viewBox="0 0 10 10" refX="9" refY="5" markerWidth="7" markerHeight="7" orient="auto-start-reverse"><path d="M 0 0 L 10 5 L 0 10 Z" fill="#4472C4"/></marker><marker id="ah-D0CECE" viewBox="0 0 10 10" refX="9" refY="5" markerWidth="7" markerHeight="7" orient="auto-start-reverse"><path d="M 0 0 L 10 5 L 0 10 Z" fill="#D0CECE"/></marker><marker id="ah-FF0066" viewBox="0 0 10 10" refX="9" refY="5" markerWidth="7" markerHeight="7" orient="auto-start-reverse"><path d="M 0 0 L 10 5 L 0 10 Z" fill="#FF0066"/></marker><marker id="ah-FF9933" viewBox="0 0 10 10" refX="9" refY="5" markerWidth="7" markerHeight="7" orient="auto-start-reverse"><path d="M 0 0 L 10 5 L 0 10 Z" fill="#FF9933"/></marker><marker id="ah-CC00CC" viewBox="0 0 10 10" refX="9" refY="5" markerWidth="7" markerHeight="7" orient="auto-start-reverse"><path d="M 0 0 L 10 5 L 0 10 Z" fill="#CC00CC"/></marker><marker id="ah-92D050" viewBox="0 0 10 10" refX="9" refY="5" markerWidth="7" markerHeight="7" orient="auto-start-reverse"><path d="M 0 0 L 10 5 L 0 10 Z" fill="#92D050"/></marker><marker id="ah-000000" viewBox="0 0 10 10" refX="9" refY="5" markerWidth="7" markerHeight="7" orient="auto-start-reverse"><path d="M 0 0 L 10 5 L 0 10 Z" fill="#000000"/></marker><marker id="ah-A270B0" viewBox="0 0 10 10" refX="9" refY="5" markerWidth="7" markerHeight="7" orient="auto-start-reverse"><path d="M 0 0 L 10 5 L 0 10 Z" fill="#A270B0"/></marker><marker id="ah-31EF87" viewBox="0 0 10 10" refX="9" refY="5" markerWidth="7" markerHeight="7" orient="auto-start-reverse"><path d="M 0 0 L 10 5 L 0 10 Z" fill="#31EF87"/></marker><marker id="ah-D3A34D" viewBox="0 0 10 10" refX="9" refY="5" markerWidth="7" markerHeight="7" orient="auto-start-reverse"><path d="M 0 0 L 10 5 L 0 10 Z" fill="#D3A34D"/></marker><marker id="ah-FFFF21" viewBox="0 0 10 10" refX="9" refY="5" markerWidth="7" markerHeight="7" orient="auto-start-reverse"><path d="M 0 0 L 10 5 L 0 10 Z" fill="#FFFF21"/></marker><marker id="ah-C65A93" viewBox="0 0 10 10" refX="9" refY="5" markerWidth="7" markerHeight="7" orient="auto-start-reverse"><path d="M 0 0 L 10 5 L 0 10 Z" fill="#C65A93"/></marker></defs><rect x="410.7" y="58.7" width="1667.4" height="889.1" fill="#FFFFFF"/><path d="M 766.2 406.9 L 1081.3 406.9" fill="none" stroke="#4472C4" stroke-width="3" marker-end="url(#ah-4472C4)"/><path d="M 769.8 402.8 L 769.8 717.9" fill="none" stroke="#4472C4" stroke-width="3" marker-end="url(#ah-4472C4)"/><path d="M 768 713.9 L 1083.1 713.9" fill="none" stroke="#4472C4" stroke-width="3" marker-end="url(#ah-4472C4)"/><path d="M 1081.2 713.9 L 1396.3 713.9" fill="none" stroke="#4472C4" stroke-width="3" marker-end="url(#ah-4472C4)"/><path d="M 1396.2 402.8 L 1396.2 717.9" fill="none" stroke="#4472C4" stroke-width="3" marker-start="url(#ah-4472C4)"/><path d="M 1392.8 402.1 L 1707.9 402.1" fill="none" stroke="#4472C4" stroke-width="3" marker-end="url(#ah-4472C4)"/><path d="M 1707.9 398.2 L 1707.9 713.4" fill="none" stroke="#D0CECE" stroke-width="3" marker-end="url(#ah-D0CECE)"/><path d="M 1704.6 712.1 L 2019.7 712.1" fill="none" stroke="#D0CECE" stroke-width="3" marker-end="url(#ah-D0CECE)"/><path d="M 2019.7 401 L 2019.7 716.1" fill="none" stroke="#D0CECE" stroke-width="3" marker-start="url(#ah-D0CECE)"/><ellipse cx="769.4" cy="716.8" rx="7.9" ry="8" fill="#70AD47" stroke="#000000" stroke-width="1.3" data-prst="ellipse"/><ellipse cx="771.5" cy="408.8" rx="7.9" ry="8" fill="#70AD47" stroke="#000000" stroke-width="1.3" data-prst="ellipse"/><ellipse cx="1079.5" cy="407.5" rx="7.9" ry="8" fill="#70AD47" stroke="#000000" stroke-width="1.3" data-prst="ellipse"/><ellipse cx="1079.5" cy="713.9" rx="7.9" ry="8" fill="#70AD47" stroke="#000000" stroke-width="1.3" data-prst="ellipse"/><ellipse cx="928" cy="407.5" rx="7.9" ry="8" fill="#70AD47" stroke="#000000" stroke-width="1.3" data-prst="ellipse"/><ellipse cx="770.6" cy="559.1" rx="7.9" ry="8" fill="#70AD47" stroke="#000000" stroke-width="1.3" data-prst="ellipse"/><ellipse cx="1002" cy="714.6" rx="7.9" ry="8" fill="#70AD47" stroke="#000000" stroke-width="1.3" data-prst="ellipse"/><ellipse cx="1397.7" cy="712.1" rx="7.9" ry="8" fill="#70AD47" stroke="#000000" stroke-width="1.3" data-prst="ellipse"/><ellipse cx="1397.7" cy="560.4" rx="7.9" ry="8" fill="#70AD47" stroke="#000000" stroke-width="1.3" data-prst="ellipse"/><ellipse cx="1397.7" cy="405.2" rx="7.9" ry="8" fill="#70AD47" stroke="#000000" stroke-width="1.3" data-prst="ellipse"/><ellipse cx="1707.8" cy="401.5" rx="7.9" ry="8" fill="#70AD47" stroke="#000000" stroke-width="1.3" data-prst="ellipse"/><ellipse cx="1474.8" cy="404.4" rx="7.9" ry="8" fill="#70AD47" stroke="#000000" stroke-width="1.3" data-prst="ellipse"/><ellipse cx="1709" cy="645.6" rx="7.9" ry="8" fill="#70AD47" stroke="#000000" stroke-width="1.3" data-prst="ellipse"/><ellipse cx="1708.9" cy="714.4" rx="7.9" ry="8" fill="#70AD47" stroke="#000000" stroke-width="1.3" data-prst="ellipse"/><ellipse cx="2020.4" cy="712.1" rx="7.9" ry="8" fill="#70AD47" stroke="#000000" stroke-width="1.3" data-prst="ellipse"/><ellipse cx="2019.7" cy="404.4" rx="7.9" ry="8" fill="#70AD47" stroke="#000000" stroke-width="1.3" data-prst="ellipse"/><ellipse cx="1869.6" cy="713" rx="7.9" ry="8" fill="#70AD47" stroke="#000000" stroke-width="1.3" data-prst="ellipse"/><text x="873.3" y="436.4" text-anchor="start" font-family="Calibri, Carlito, Arial, sans-serif" font-size="25.6" fill="#4F81BD">1A, 100</text><g transform="rotate(270 796.2 558.8)"><text x="734.7" y="563.7" text-anchor="start" font-family="Calibri, Carlito, Arial, sans-serif" font-size="24" fill="#000000">2A, 200</text></g><text x="850.5" y="689.6" text-anchor="start" font-family="Calibri, Carlito, Arial, sans-serif" font-size="25.6" fill="#4F81BD">3A, 300</text><text x="1183.7" y="693.5" text-anchor="start" font-family="Calibri, Carlito, Arial, sans-serif" font-size="25.6" fill="#4472C4">1B, 400</text><g transform="rotate(270 1365.3 552.4)"><text x="1303.8" y="558.7" text-anchor="start" font-family="Calibri, Carlito, Arial, sans-serif" font-size="25.6" fill="#4472C4">2B, 500</text></g><text x="1494.7" y="429.6" text-anchor="start" font-family="Calibri, Carlito, Arial, sans-serif" font-size="25.6" fill="#4472C4">3B, 600</text><text x="1825" y="680.1" text-anchor="start" font-family="Calibri, Carlito, Arial, sans-serif" font-size="25.6" fill="#767171">2C, 200</text><g transform="rotate(270 1681.4 552.4)"><text x="1619.9" y="558.7" text-anchor="start" font-family="Calibri, Carlito, Arial, sans-serif" font-size="25.6" fill="#767171">1C, 100</text></g><g transform="rotate(270 2044.7 542.6)"><text x="1983.2" y="548.9" text-anchor="start" font-family="Calibri, Carlito, Arial, sans-serif" font-size="25.6" fill="#767171">3C, 300</text></g><text x="771.9" y="385.3" text-anchor="start" font-family="Calibri, Carlito, Arial, sans-serif" font-size="14.9" fill="#548235">4</text><text x="1077.6" y="386.7" text-anchor="start" font-family="Calibri, Carlito, Arial, sans-serif" font-size="14.9" fill="#548235">2</text><text x="745" y="711" text-anchor="start" font-family="Calibri, Carlito, Arial, sans-serif" font-size="14.9" fill="#548235">2</text><text x="746.8" y="408.1" text-anchor="start" font-family="Calibri, Carlito, Arial, sans-serif" font-size="14.9" fill="#548235">0</text><text x="765.5" y="738.4" text-anchor="start" font-family="Calibri, Carlito, Arial, sans-serif" font-size="14.9" fill="#548235">0</text><text x="1074" y="737.5" text-anchor="start" font-family="Calibri, Carlito, Arial, sans-serif" font-size="14.9" fill="#548235">4</text><text x="994.1" y="737.5" text-anchor="start" font-family="Calibri, Carlito, Arial, sans-serif" font-size="14.9" fill="#548235">3</text><text x="746.5" y="560" text-anchor="start" font-family="Calibri, Carlito, Arial, sans-serif" font-size="14.9" fill="#548235">1</text><text x="922" y="384.2" text-anchor="start" font-family="Calibri, Carlito, Arial, sans-serif" font-size="14.9" fill="#548235">3</text><text x="1091.3" y="692.8" text-anchor="start" font-family="Calibri, Carlito, Arial, sans-serif" font-size="14.9" fill="#548235">3</text><text x="1378.5" y="691.9" text-anchor="start" font-family="Calibri, Carlito, Arial, sans-serif" font-size="14.9" fill="#548235">5</text><text x="1412.5" y="709.2" text-anchor="start" font-family="Calibri, Carlito, Arial, sans-serif" font-size="14.9" fill="#548235">4</text><text x="1416.2" y="417.1" text-anchor="start" font-family="Calibri, Carlito, Arial, sans-serif" font-size="14.9" fill="#548235">8</text><text x="1411.8" y="563.2" text-anchor="start" font-family="Calibri, Carlito, Arial, sans-serif" font-size="14.9" fill="#548235">5</text><text x="1392.8" y="383.9" text-anchor="start" font-family="Calibri, Carlito, Arial, sans-serif" font-size="14.9" fill="#548235">0</text><text x="1702.9" y="382" text-anchor="start" font-family="Calibri, Carlito, Arial, sans-serif" font-size="14.9" fill="#548235">4</text><text x="1469.1" y="382.7" text-anchor="start" font-family="Calibri, Carlito, Arial, sans-serif" font-size="14.9" fill="#548235">1</text><text x="1726.9" y="403.9" text-anchor="start" font-family="Calibri, Carlito, Arial, sans-serif" font-size="14.9" fill="#548235">2</text><text x="1726" y="696.6" text-anchor="start" font-family="Calibri, Carlito, Arial, sans-serif" font-size="14.9" fill="#548235">6</text><text x="1726" y="644.2" text-anchor="start" font-family="Calibri, Carlito, Arial, sans-serif" font-size="14.9" fill="#548235">5</text><text x="1703.4" y="738.9" text-anchor="start" font-family="Calibri, Carlito, Arial, sans-serif" font-size="14.9" fill="#548235">2</text><text x="2014.8" y="735.1" text-anchor="start" font-family="Calibri, Carlito, Arial, sans-serif" font-size="14.9" fill="#548235">4</text><text x="1864.1" y="733.7" text-anchor="start" font-family="Calibri, Carlito, Arial, sans-serif" font-size="14.9" fill="#548235">3</text><text x="2036.5" y="711" text-anchor="start" font-family="Calibri, Carlito, Arial, sans-serif" font-size="14.9" fill="#548235">6</text><text x="2034.8" y="402.6" text-anchor="start" font-family="Calibri, Carlito, Arial, sans-serif" font-size="14.9" fill="#548235">8</text><path d="M 1946.2 152.2 L 793.7 152.2" fill="none" stroke="#808080" stroke-width="3"/><path d="M 1084.1 343 L 698.3 337.9 L 702.5 756 L 1084.1 758.5" fill="none" stroke="#C0504D" stroke-width="6" stroke-dasharray="24 18"/><path d="M 1080.7 365 L 720.7 365 L 719.1 579.5" fill="none" stroke="#F79646" stroke-width="6" stroke-dasharray="24 18"/><path d="M 927.1 316.8 L 673.6 316.8 L 672.4 579.5" fill="none" stroke="#FF0000" stroke-width="6" stroke-dasharray="24 18"/><path d="M 672.4 583.8 L 672.4 776.8 L 937.6 779.6" fill="none" stroke="#7030A0" stroke-width="6" stroke-dasharray="24 18"/><path d="M 937.6 291.5 L 640.8 291.5 L 639.1 800.2 L 932.6 806.7" fill="none" stroke="#0070C0" stroke-width="6" stroke-dasharray="24 18"/><path d="M 619.9 545.7 L 619.9 823.3 L 1081.7 827.3" fill="none" stroke="#632523" stroke-width="6" stroke-dasharray="24 18"/><path d="M 1104.1 270.9 L 596.9 270.9 L 594.6 745.9" fill="none" stroke="#984807" stroke-width="6" stroke-dasharray="24 18"/><path d="M 558.7 398.7 L 557.3 853.1 L 1081.7 851.6" fill="none" stroke="#C00000" stroke-width="6" stroke-dasharray="24 18"/><path d="M 532.9 398.7 L 531.8 873.7 L 937.6 872.2" fill="none" stroke="#FF00FF" stroke-width="6" stroke-dasharray="24 18"/><path d="M 927.1 250.9 L 518.2 250.9 L 516.4 744.1" fill="none" stroke="#66FF66" stroke-width="6" stroke-dasharray="24 18"/><path d="M 749.3 887.8 L 1090.9 887.8" fill="none" stroke="#FF0066" stroke-width="6" stroke-dasharray="24 18" marker-end="url(#ah-FF0066)"/><path d="M 749.3 909.8 L 934.8 909.8" fill="none" stroke="#FF9933" stroke-width="6" stroke-dasharray="24 18" marker-end="url(#ah-FF9933)"/><path d="M 932.7 909.8 L 1083.1 909.8" fill="none" stroke="#CC00CC" stroke-width="6" stroke-dasharray="24 18" marker-end="url(#ah-CC00CC)"/><path d="M 821.8 931.4 L 1009.8 931.8" fill="none" stroke="#92D050" stroke-width="6" stroke-dasharray="24 18" marker-end="url(#ah-92D050)"/><path d="M 744 226.5 L 1085.6 226.5" fill="none" stroke="#000000" stroke-width="6" stroke-dasharray="24 18" marker-start="url(#ah-000000)"/><path d="M 746 198 L 931.5 198" fill="none" stroke="#808080" stroke-width="6" stroke-dasharray="24 18" marker-start="url(#ah-808080)"/><path d="M 929.3 198 L 1079.7 198" fill="none" stroke="#953735" stroke-width="6" stroke-dasharray="24 18" marker-start="url(#ah-953735)"/><path d="M 828.3 178 L 1016.4 178.4" fill="none" stroke="#A270B0" stroke-width="6" stroke-dasharray="24 18" marker-start="url(#ah-A270B0)"/><path d="M 490.9 395.4 L 490.9 739.1" fill="none" stroke="#31EF87" stroke-width="6" stroke-dasharray="24 18" marker-end="url(#ah-31EF87)"/><path d="M 461.9 398.7 L 461.9 579.5" fill="none" stroke="#D3A34D" stroke-width="6" stroke-dasharray="24 18" marker-end="url(#ah-D3A34D)"/><path d="M 461.9 585.1 L 461.9 744.7" fill="none" stroke="#FFFF21" stroke-width="6" stroke-dasharray="24 18" marker-end="url(#ah-FFFF21)"/><path d="M 426.7 467.2 L 426.7 663.7" fill="none" stroke="#C65A93" stroke-width="6" stroke-dasharray="24 18" marker-end="url(#ah-C65A93)"/><rect x="1833.6" y="74.7" width="158.3" height="49.8" fill="#F3F3F3" stroke="#9A9A9A" stroke-dasharray="4 3"/><image href="fig-06-slide-03-3.png" x="1833.6" y="74.7" width="158.3" height="49.8" preserveAspectRatio="none"/><text x="1912.7" y="103.6" text-anchor="middle" font-family="Calibri, Carlito, Arial, sans-serif" font-size="11" fill="#9A9A9A">picture</text></svg>