<svg xmlns="http://www.w3.org/2000/svg" xmlns:xlink="http://www.w3.org/1999/xlink" viewBox="9.3 5 702 923.5" width="702" height="923.5" data-slide="19" data-shapes="20" data-connectors="4"><title>Slide 19 drawing — 20 shapes, 4 connectors</title><defs><marker id="ah-000000" viewBox="0 0 10 10" refX="9" refY="5" markerWidth="7" markerHeight="7" orient="auto-start-reverse"><path d="M 0 0 L 10 5 L 0 10 Z" fill="#000000"/></marker><marker id="ah-C00000" viewBox="0 0 10 10" refX="9" refY="5" markerWidth="7" markerHeight="7" orient="auto-start-reverse"><path d="M 0 0 L 10 5 L 0 10 Z" fill="#C00000"/></marker></defs><rect x="9.3" y="5" width="702" height="923.5" fill="#FFFFFF"/><text x="44" y="46.2" text-anchor="start" font-family="Calibri, Carlito, Arial, sans-serif" font-size="24" font-weight="bold" fill="#000000">PoM1 - Simple routes in a line with intersection</text><text x="44" y="75" text-anchor="start" font-family="Calibri, Carlito, Arial, sans-serif" font-size="24" font-weight="bold" fill="#000000">being the log field and a location field (PoM 1)</text><path d="M 38.9 216.4 L 172.4 216.4" fill="none" stroke="#000000" stroke-width="2" marker-end="url(#ah-000000)"/><path d="M 388 216.5 L 166.3 216.5" fill="none" stroke="#C00000" stroke-width="2" marker-end="url(#ah-C00000)"/><path d="M 669.7 218.3 L 491.8 217.3" fill="none" stroke="#C00000" stroke-width="2" marker-end="url(#ah-C00000)"/><path d="M 388 216.9 L 493.6 216.9" fill="none" stroke="#000000" stroke-width="2" marker-end="url(#ah-000000)"/><text x="25.3" y="199" text-anchor="start" font-family="Calibri, Carlito, Arial, sans-serif" font-size="24" fill="#000000">L1</text><text x="92.2" y="234.6" text-anchor="start" font-family="Calibri, Carlito, Arial, sans-serif" font-size="16" fill="#000000">L1R1</text><text x="148.4" y="234.1" text-anchor="start" font-family="Calibri, Carlito, Arial, sans-serif" font-size="16" fill="#000000">10</text><text x="35" y="235.9" text-anchor="start" font-family="Calibri, Carlito, Arial, sans-serif" font-size="16" fill="#000000">0</text><text x="83.3" y="291.6" text-anchor="start" font-family="Calibri, Carlito, Arial, sans-serif" font-size="16" fill="#000000">Route Int</text><rect x="159.9" y="197.6" width="19.2" height="19.2" fill="#F3F3F3" stroke="#9A9A9A" stroke-dasharray="4 3"/><image href="fig-11-slide-08-8.png" x="159.9" y="197.6" width="19.2" height="19.2" preserveAspectRatio="none"/><text x="169.5" y="211.2" text-anchor="middle" font-family="Calibri, Carlito, Arial, sans-serif" font-size="11" fill="#9A9A9A">picture</text><rect x="59.2" y="278.1" width="19.2" height="19.2" fill="#F3F3F3" stroke="#9A9A9A" stroke-dasharray="4 3"/><image href="fig-11-slide-08-8.png" x="59.2" y="278.1" width="19.2" height="19.2" preserveAspectRatio="none"/><text x="68.8" y="291.7" text-anchor="middle" font-family="Calibri, Carlito, Arial, sans-serif" font-size="11" fill="#9A9A9A">picture</text><text x="387.7" y="230.5" text-anchor="start" font-family="Calibri, Carlito, Arial, sans-serif" font-size="16" fill="#000000">10</text><text x="471.8" y="233.5" text-anchor="start" font-family="Calibri, Carlito, Arial, sans-serif" font-size="16" fill="#000000">15</text><text x="648.8" y="231.8" text-anchor="start" font-family="Calibri, Carlito, Arial, sans-serif" font-size="16" fill="#C00000">95</text><text x="494.7" y="232.6" text-anchor="start" font-family="Calibri, Carlito, Arial, sans-serif" font-size="16" fill="#C00000">110</text><text x="361.2" y="230.3" text-anchor="start" font-family="Calibri, Carlito, Arial, sans-serif" font-size="16" fill="#C00000">110</text><text x="166.1" y="235.4" text-anchor="start" font-family="Calibri, Carlito, Arial, sans-serif" font-size="16" fill="#C00000">130</text><rect x="484" y="194.6" width="19.2" height="19.2" fill="#F3F3F3" stroke="#9A9A9A" stroke-dasharray="4 3"/><image href="fig-11-slide-08-8.png" x="484" y="194.6" width="19.2" height="19.2" preserveAspectRatio="none"/><text x="493.6" y="208.2" text-anchor="middle" font-family="Calibri, Carlito, Arial, sans-serif" font-size="11" fill="#9A9A9A">picture</text><rect x="382.3" y="191.5" width="19.2" height="19.2" fill="#F3F3F3" stroke="#9A9A9A" stroke-dasharray="4 3"/><image href="fig-11-slide-08-8.png" x="382.3" y="191.5" width="19.2" height="19.2" preserveAspectRatio="none"/><text x="391.9" y="205.1" text-anchor="middle" font-family="Calibri, Carlito, Arial, sans-serif" font-size="11" fill="#9A9A9A">picture</text><text x="260.7" y="212.5" text-anchor="start" font-family="Calibri, Carlito, Arial, sans-serif" font-size="16" fill="#C00000">L1R2</text><path d="M 466.2 176.5 L 431.1 212.1 L 449.4 269.6 L 508 343.9 L 631.8 311.4 L 680.8 197.2 L 569.5 119.7 L 466.2 176.5 Z" fill="none" stroke="#ED7D31" stroke-width="1"/><text x="550" y="148.3" text-anchor="start" font-family="Calibri, Carlito, Arial, sans-serif" font-size="16" fill="#C55A11">City2</text><text x="401.5" y="154.8" text-anchor="start" font-family="Calibri, Carlito, Arial, sans-serif" font-size="16" fill="#C55A11">City1</text><path d="M 431.1 212.1 L 448.2 269.6 L 485.4 315.2 L 390.8 327.1 L 92.2 272.1 L 110.8 184 L 275.4 119.7 L 432.6 134.7 L 465.3 177.2 L 431.1 212.1 Z" fill="none" stroke="#ED7D31" stroke-width="1"/><rect x="47.5" y="844.7" width="622.1" height="67.9" fill="none" stroke="#FF00FF" stroke-width="4" data-prst="rect"/><text x="358.6" y="869.9" text-anchor="middle" font-family="Calibri, Carlito, Arial, sans-serif" font-size="24" fill="#000000">Results are route based. They might look weird</text><text x="358.6" y="898.7" text-anchor="middle" font-family="Calibri, Carlito, Arial, sans-serif" font-size="24" fill="#000000">under a PoM scenario. E.g. different</text><text x="358.6" y="927.5" text-anchor="middle" font-family="Calibri, Carlito, Arial, sans-serif" font-size="24" fill="#000000">intersections at the same measure.</text><rect x="234.5" y="446" width="445" height="82" fill="none" stroke="#FF00FF" stroke-width="4" data-prst="rect"/><rect x="233.6" y="679.2" width="445" height="91" fill="none" stroke="#FF00FF" stroke-width="4" data-prst="rect"/></svg>