<svg xmlns="http://www.w3.org/2000/svg" viewBox="0 0 743 414.9" width="743" height="414.9" role="img" aria-label="Slide 54 interface wireframe"><title>Slide 54 interface wireframe</title><desc>Interface screenshot redrawn as a standardized wireframe: 10 buttons, 2 row separators, 48 icons, 51 text rows. 51 of 51 text rows carry text transcribed from the screenshot (OCR, approximate); positions are approximate to the source image and colours are mapped to the corpus palette.</desc><style>.plate{fill:#FFFFFF;stroke:#D7DFDF;stroke-width:1}.ln{fill:none;stroke-linecap:round;stroke-linejoin:round}.route{stroke:#16302F;stroke-width:3;stroke-dasharray:10 6;stroke-linecap:butt}.ctx{stroke:#B9C6C6;stroke-width:2.4}.event{stroke-width:8}.flat{stroke-linecap:butt}.tick{stroke:#6E8285;stroke-width:1.15}.maj{stroke:#4E6265;stroke-width:1.4}.leader{stroke:#6E8285;stroke-width:1}.split{stroke:#16302F;stroke-width:1.4;stroke-dasharray:3 2.5;opacity:.55}.splitdot{fill:#FFFFFF;stroke:#16302F;stroke-width:1.6}.edge{stroke:#4E6265;stroke-width:1.8}.free{stroke-width:2.2}.freefill{stroke-width:2.2;stroke-linejoin:round}.dashed{stroke-dasharray:7 4.5}.dotted{stroke-dasharray:1.6 3.6}.node{fill:#FFFFFF;stroke:#16302F;stroke-width:1.6}.t-plain{fill:#FFFFFF}.t-ink{fill:#E9EDED}.t-muted{fill:#EFF2F2}.t-cool{fill:#E5F0F5}.t-warm{fill:#F9F0E2}.t-green{fill:#E6F2EC}.t-violet{fill:#EFEAF7}.t-red{fill:#F8E9E5}.nlabel{font-size:12px;fill:#16302F;font-weight:500}.swatch{stroke-width:5}.legend{font-size:10.5px;fill:#4E6265}.s-ink{stroke:#16302F}.f-ink{fill:#16302F}.s-muted{stroke:#6E8285}.f-muted{fill:#6E8285}.s-cool{stroke:#1B6E8C}.f-cool{fill:#1B6E8C}.s-warm{stroke:#C2701A}.f-warm{fill:#9C5A12}.s-green{stroke:#2E7D5B}.f-green{fill:#2E7D5B}.s-violet{stroke:#7A5AA6}.f-violet{fill:#7A5AA6}.s-red{stroke:#B2442F}.f-red{fill:#B2442F}.event.s-cool,.swatch.s-cool{stroke:#4FA7D5}.event.s-warm,.swatch.s-warm{stroke:#E39A45}.event.s-green,.swatch.s-green{stroke:#4EB183}.event.s-violet,.swatch.s-violet{stroke:#A58BD3}.event.s-red,.swatch.s-red{stroke:#DC8168}.wf-panel{fill:#FFFFFF;stroke:#6E8285;stroke-width:1.4}.wf-box{fill:none;stroke:#6E8285;stroke-width:1.1}.wf-field{fill:#FFFFFF;stroke:#6E8285;stroke-width:1.1}.wf-btn{stroke-width:1.2}.wf-sep{stroke:#D7DFDF;stroke-width:1}.wf-gk{fill:#B9C6C6}.wf-gkh{fill:#4E6265}.wf-gkp{fill:#FFFFFF}.wf-ico{fill:#EFF2F2;stroke:#6E8285;stroke-width:1.1}.wf-tx{fill:#4E6265}.wf-txh{fill:#16302F;font-weight:600}.wf-txp{fill:#16302F;font-weight:500}text{font-family:'Segoe UI',system-ui,Roboto,'Helvetica Neue',Arial,sans-serif}.measure{font-size:11px;fill:#6E8285;font-variant-numeric:tabular-nums}.id{font-size:12.5px;font-weight:600}.note{font-size:12px;fill:#16302F}</style><defs><marker id="ar" viewBox="0 0 8 8" refX="6" refY="4" markerWidth="4.4" markerHeight="4.4" orient="auto-start-reverse"><path d="M0 0.7 L8 4 L0 7.3 z" fill="#16302F"/></marker><marker id="ae" viewBox="0 0 8 8" refX="6" refY="4" markerWidth="4.4" markerHeight="4.4" orient="auto-start-reverse"><path d="M0 0.7 L8 4 L0 7.3 z" fill="#4E6265"/></marker></defs><rect class="plate" x="1" y="1" width="741" height="412.9" rx="6"/><g transform="translate(14.3,11.4)"><rect class="wf-box" x="700.4" y="93.8" width="8.2" height="8.2" rx="4"/><rect class="wf-box" x="548.8" y="145.4" width="5.4" height="7.9" rx="4"/><rect class="wf-box" x="620" y="145.4" width="7.3" height="3.6" rx="4"/><rect class="wf-box" x="539.9" y="190.2" width="6.3" height="7.9" rx="4"/><rect class="wf-box" x="303.7" y="235.3" width="7.4" height="7.9" rx="4"/><rect class="wf-box" x="303.7" y="259.6" width="7.4" height="7.9" rx="4"/><rect class="wf-box" x="183.5" y="313.9" width="8.2" height="4.4" rx="4"/><rect class="wf-box" x="303.7" y="313.9" width="7.4" height="4.4" rx="4"/><rect class="wf-box" x="207.2" y="313.9" width="7.6" height="9.4" rx="4"/><rect class="wf-box" x="40.1" y="337.8" width="8.5" height="4.4" rx="4"/><rect class="wf-box" x="543.1" y="370.3" width="8.5" height="4.3" rx="4"/><rect class="wf-box" x="303.7" y="370.3" width="7.4" height="9.4" rx="4"/><line class="ln wf-sep" x1="700.8" y1="99.2" x2="706.8" y2="99.2"/><line class="ln wf-sep" x1="547.5" y1="149" x2="554.7" y2="149"/><rect class="wf-btn t-ink s-ink" x="193" y="18.5" width="9.5" height="3.8" rx="4"/><rect class="wf-btn t-ink s-ink" x="121.1" y="18.5" width="7.6" height="3.8" rx="4"/><rect class="wf-btn t-ink s-ink" x="164.6" y="18.5" width="9.5" height="3.8" rx="4"/><rect class="wf-btn t-ink s-ink" x="221.4" y="18.5" width="7.6" height="3.8" rx="4"/><rect class="wf-btn t-ink s-ink" x="347.6" y="18.5" width="11.9" height="3.8" rx="4"/><rect class="wf-btn t-ink s-ink" x="9.5" y="22.7" width="7.6" height="3.8" rx="4"/><rect class="wf-btn t-ink s-ink" x="44.9" y="32.2" width="8" height="3.8" rx="4"/><rect class="wf-btn t-ink s-ink" x="179.8" y="32.2" width="9.5" height="3.8" rx="4"/><rect class="wf-btn t-ink s-ink" x="196.8" y="32.2" width="5.7" height="3.8" rx="4"/><rect class="wf-btn t-ink s-ink" x="5.7" y="289.5" width="5.7" height="3.8" rx="4"/><rect class="wf-ico" x="90.2" y="11.1" width="3.8" height="4.1" rx="2.5"/><text class="wf-tx" x="143.8" y="15.9" font-size="8">Postmile</text><rect class="wf-ico" x="234.7" y="11.1" width="4.4" height="4.1" rx="2.5"/><text class="wf-tx" x="98.2" y="21.6" font-size="8">Reassign</text><rect class="wf-ico" x="149.8" y="14.1" width="8.8" height="9.5" rx="2.5"/><rect class="wf-ico" x="105.3" y="20.5" width="7.3" height="7.3" rx="2.5"/><rect class="wf-ico" x="250.7" y="28.1" width="6.9" height="5.7" rx="2.5"/><rect class="wf-ico" x="347.6" y="28.1" width="5.6" height="5.7" rx="2.5"/><text class="wf-tx" x="261.8" y="35.8" font-size="8">Postmile</text><text class="wf-tx" x="356.5" y="35.8" font-size="8">Route</text><text class="wf-txp" x="44.9" y="38.2" font-size="8">Reassign</text><text class="wf-tx" x="253.2" y="38.2" font-size="8">Postmile</text><text class="wf-tx" x="347.6" y="38.2" font-size="8">Route</text><text class="wf-tx" x="98.2" y="40.4" font-size="8">Reassign</text><text class="wf-tx" x="98.2" y="45" font-size="8">Reassign</text><rect class="wf-ico" x="5.7" y="94.4" width="5.7" height="5.4" rx="2.5"/><rect class="wf-ico" x="65.9" y="93.5" width="4.1" height="7.3" rx="2.5"/><rect class="wf-ico" x="303.7" y="92.5" width="1.9" height="9.1" rx="2.5"/><rect class="wf-ico" x="362.7" y="93.5" width="4.4" height="7.3" rx="2.5"/><rect class="wf-ico" x="385.6" y="92.5" width="5.5" height="9.1" rx="2.5"/><rect class="wf-ico" x="476.8" y="92.4" width="10.7" height="9.5" rx="2.5"/><rect class="wf-ico" x="580.6" y="93.3" width="3.8" height="7.6" rx="2.5"/><rect class="wf-ico" x="608.5" y="95.3" width="5.2" height="3.5" rx="2.5"/><rect class="wf-ico" x="665.4" y="92.5" width="3.8" height="9.1" rx="2.5"/><text class="wf-tx" x="234.7" y="123.5" font-size="8">postmile</text><text class="wf-tx" x="385.6" y="123.5" font-size="8">same</text><rect class="wf-ico" x="36.3" y="120.2" width="4.7" height="4.7" rx="2.5"/><text class="wf-tx" x="61.2" y="127.8" font-size="8.5">Reassign</text><rect class="wf-ico" x="108.2" y="120.3" width="7.3" height="9.1" rx="2.5"/><text class="wf-tx" x="127.7" y="127.8" font-size="8.5">to a new</text><text class="wf-tx" x="201.8" y="127.8" font-size="8.5">postmile route on</text><text class="wf-tx" x="347.6" y="127.8" font-size="8.5">the same line</text><text class="wf-tx" x="234.7" y="148.1" font-size="8">postmile</text><rect class="wf-ico" x="36.3" y="146.7" width="4.7" height="4.7" rx="2.5"/><text class="wf-tx" x="61.2" y="152" font-size="8.5">Reassign</text><rect class="wf-ico" x="108.2" y="144.5" width="7.3" height="9.1" rx="2.5"/><text class="wf-tx" x="127.7" y="152" font-size="8.5">to a new</text><text class="wf-tx" x="201.8" y="152" font-size="8.5">postmile route on a new line</text><text class="wf-tx" x="420.2" y="152" font-size="8.5">(contingent</text><text class="wf-tx" x="476.8" y="152" font-size="8.5">(contingent</text><text class="wf-tx" x="506.2" y="152" font-size="8.5">on user story</text><rect class="wf-ico" x="600.5" y="146.1" width="4.4" height="6" rx="2.5"/><text class="wf-tx" x="620" y="152" font-size="8.5">being</text><text class="wf-tx" x="77" y="168.3" font-size="8">completed)</text><text class="wf-tx" x="51.4" y="172.6" font-size="8.5">completed)</text><text class="wf-tx" x="98.2" y="172.6" font-size="8.5">completed)</text><rect class="wf-ico" x="366.1" y="185.4" width="4.4" height="4.4" rx="2.5"/><text class="wf-tx" x="234.7" y="192.9" font-size="8">postmile</text><rect class="wf-ico" x="36.3" y="191.6" width="4.7" height="4.7" rx="2.5"/><text class="wf-tx" x="61.2" y="196.9" font-size="8.5">Reassign</text><rect class="wf-ico" x="108.2" y="189.4" width="7.3" height="9.1" rx="2.5"/><text class="wf-tx" x="127.7" y="196.9" font-size="8.5">to a new</text><text class="wf-tx" x="201.8" y="196.9" font-size="8.5">postmile route on a</text><rect class="wf-ico" x="356.5" y="189.6" width="1.1" height="8.8" rx="2.5"/><text class="wf-tx" x="370.6" y="196.9" font-size="8.5">different</text><text class="wf-tx" x="420.2" y="196.9" font-size="8.5">line</text><text class="wf-tx" x="454.6" y="196.9" font-size="8.5">(contingent</text><text class="wf-tx" x="510" y="196.9" font-size="8.5">(contingent</text><text class="wf-tx" x="539.9" y="196.9" font-size="8.5">on user story</text><rect class="wf-ico" x="634.5" y="190.8" width="3.8" height="6.3" rx="2.5"/><text class="wf-tx" x="653.1" y="196.9" font-size="8.5">being</text><text class="wf-tx" x="77" y="213.4" font-size="8">completed)</text><text class="wf-tx" x="51.4" y="217.7" font-size="8.5">completed)</text><text class="wf-tx" x="98.2" y="217.7" font-size="8.5">completed)</text><rect class="wf-ico" x="36.3" y="234.6" width="4.7" height="4.7" rx="2.5"/><text class="wf-tx" x="61.2" y="242.3" font-size="8.5">Reassign</text><rect class="wf-ico" x="108.2" y="234.8" width="7.3" height="9.1" rx="2.5"/><text class="wf-tx" x="127.7" y="242.3" font-size="8.5">to an existing</text><text class="wf-tx" x="234.7" y="242.3" font-size="8.5">postmile</text><text class="wf-tx" x="303.7" y="242.3" font-size="8.5">route on</text><text class="wf-tx" x="385.6" y="242.3" font-size="8.5">the same</text><text class="wf-tx" x="447.2" y="242.3" font-size="8.5">line</text><rect class="wf-ico" x="401.2" y="254.8" width="4.4" height="4.4" rx="2.5"/><rect class="wf-ico" x="36.3" y="258.9" width="4.7" height="4.7" rx="2.5"/><text class="wf-tx" x="61.2" y="266.5" font-size="8.5">Reassign</text><rect class="wf-ico" x="108.2" y="259.1" width="7.3" height="9.1" rx="2.5"/><text class="wf-tx" x="127.7" y="266.5" font-size="8.5">to an existing</text><text class="wf-tx" x="234.7" y="266.5" font-size="8.5">postmile</text><text class="wf-tx" x="303.7" y="266.5" font-size="8.5">route on a</text><text class="wf-tx" x="405.9" y="266.5" font-size="8.5">different</text><text class="wf-tx" x="454.6" y="266.5" font-size="8.5">line</text><rect class="wf-ico" x="303.7" y="289.5" width="2.5" height="9.1" rx="2.5"/><rect class="wf-ico" x="385.6" y="289.5" width="5.2" height="9.1" rx="2.5"/><rect class="wf-ico" x="286" y="297.4" width="3.8" height="5.7" rx="2.5"/><rect class="wf-ico" x="86.7" y="313.6" width="3.8" height="3.2" rx="2.5"/><rect class="wf-ico" x="608.5" y="313.4" width="3.6" height="3.5" rx="2.5"/><rect class="wf-ico" x="169.4" y="313.2" width="4.1" height="9.1" rx="2.5"/><rect class="wf-ico" x="347.6" y="313.2" width="0.6" height="9.1" rx="2.5"/><rect class="wf-ico" x="385.6" y="314.2" width="3" height="7.3" rx="2.5"/><rect class="wf-ico" x="476.8" y="313.2" width="3.2" height="9.1" rx="2.5"/><rect class="wf-ico" x="82.6" y="337.5" width="3.8" height="3.2" rx="2.5"/><rect class="wf-ico" x="5.7" y="370.6" width="5.7" height="5.4" rx="2.5"/><rect class="wf-ico" x="207.2" y="368.7" width="3.5" height="9.1" rx="2.5"/><rect class="wf-ico" x="246" y="368.2" width="1.9" height="10.1" rx="2.5"/><rect class="wf-ico" x="347.6" y="368.7" width="4" height="9.1" rx="2.5"/><rect class="wf-ico" x="408.4" y="368.5" width="9.1" height="9.5" rx="2.5"/><rect class="wf-ico" x="571.8" y="369.5" width="3.8" height="7.6" rx="2.5"/><rect class="wf-ico" x="600.5" y="371.5" width="4.4" height="3.5" rx="2.5"/><rect class="wf-ico" x="98.2" y="377.8" width="3" height="5.7" rx="2.5"/></g></svg>