<svg xmlns="http://www.w3.org/2000/svg" viewBox="0 0 266.5 233" width="266.5" height="233" role="img" aria-label="Slide 3 route diagram"><title>Slide 3 route diagram</title><desc>Route diagram vector-traced from the slide's pasted picture; positions are approximate to the source image and colours are mapped to the corpus palette.</desc><style>.plate{fill:#FFFFFF;stroke:#D7DFDF;stroke-width:1}.ln{fill:none;stroke-linecap:round;stroke-linejoin:round}.route{stroke:#16302F;stroke-width:3;stroke-dasharray:10 6;stroke-linecap:butt}.ctx{stroke:#B9C6C6;stroke-width:2.4}.event{stroke-width:8}.flat{stroke-linecap:butt}.tick{stroke:#6E8285;stroke-width:1.15}.maj{stroke:#4E6265;stroke-width:1.4}.leader{stroke:#6E8285;stroke-width:1}.split{stroke:#16302F;stroke-width:1.4;stroke-dasharray:3 2.5;opacity:.55}.splitdot{fill:#FFFFFF;stroke:#16302F;stroke-width:1.6}.edge{stroke:#4E6265;stroke-width:1.8}.free{stroke-width:2.2}.freefill{stroke-width:2.2;stroke-linejoin:round}.dashed{stroke-dasharray:7 4.5}.dotted{stroke-dasharray:1.6 3.6}.node{fill:#FFFFFF;stroke:#16302F;stroke-width:1.6}.t-plain{fill:#FFFFFF}.t-ink{fill:#E9EDED}.t-muted{fill:#EFF2F2}.t-cool{fill:#E5F0F5}.t-warm{fill:#F9F0E2}.t-green{fill:#E6F2EC}.t-violet{fill:#EFEAF7}.t-red{fill:#F8E9E5}.nlabel{font-size:12px;fill:#16302F;font-weight:500}.swatch{stroke-width:5}.legend{font-size:10.5px;fill:#4E6265}.s-ink{stroke:#16302F}.f-ink{fill:#16302F}.s-muted{stroke:#6E8285}.f-muted{fill:#6E8285}.s-cool{stroke:#1B6E8C}.f-cool{fill:#1B6E8C}.s-warm{stroke:#C2701A}.f-warm{fill:#9C5A12}.s-green{stroke:#2E7D5B}.f-green{fill:#2E7D5B}.s-violet{stroke:#7A5AA6}.f-violet{fill:#7A5AA6}.s-red{stroke:#B2442F}.f-red{fill:#B2442F}.event.s-cool,.swatch.s-cool{stroke:#4FA7D5}.event.s-warm,.swatch.s-warm{stroke:#E39A45}.event.s-green,.swatch.s-green{stroke:#4EB183}.event.s-violet,.swatch.s-violet{stroke:#A58BD3}.event.s-red,.swatch.s-red{stroke:#DC8168}.wf-panel{fill:#FFFFFF;stroke:#6E8285;stroke-width:1.4}.wf-box{fill:none;stroke:#6E8285;stroke-width:1.1}.wf-field{fill:#FFFFFF;stroke:#6E8285;stroke-width:1.1}.wf-btn{stroke-width:1.2}.wf-sep{stroke:#D7DFDF;stroke-width:1}.wf-gk{fill:#B9C6C6}.wf-gkh{fill:#4E6265}.wf-gkp{fill:#FFFFFF}.wf-ico{fill:#EFF2F2;stroke:#6E8285;stroke-width:1.1}.wf-tx{fill:#4E6265}.wf-txh{fill:#16302F;font-weight:600}.wf-txp{fill:#16302F;font-weight:500}text{font-family:'Segoe UI',system-ui,Roboto,'Helvetica Neue',Arial,sans-serif}.measure{font-size:11px;fill:#6E8285;font-variant-numeric:tabular-nums}.id{font-size:12.5px;font-weight:600}.note{font-size:12px;fill:#16302F}</style><defs><marker id="ar" viewBox="0 0 8 8" refX="6" refY="4" markerWidth="4.4" markerHeight="4.4" orient="auto-start-reverse"><path d="M0 0.7 L8 4 L0 7.3 z" fill="#16302F"/></marker><marker id="ae" viewBox="0 0 8 8" refX="6" refY="4" markerWidth="4.4" markerHeight="4.4" orient="auto-start-reverse"><path d="M0 0.7 L8 4 L0 7.3 z" fill="#4E6265"/></marker></defs><rect class="plate" x="1" y="1" width="264.5" height="231" rx="6"/><g transform="translate(-754.1,-248.5)"><line class="ln event flat s-green" x1="919.6" y1="303.5" x2="919.6" y2="443.5"/><line class="ln tick" x1="800.6" y1="423.5" x2="800.6" y2="433.5"/><line class="ln tick" x1="881.6" y1="413.5" x2="881.6" y2="423.5"/><line class="ln tick" x1="898.6" y1="413.5" x2="898.6" y2="423.5"/><line class="ln tick" x1="900.6" y1="413.5" x2="900.6" y2="423.5"/><line class="ln tick" x1="925.6" y1="443.5" x2="925.6" y2="457.5"/><line class="ln tick" x1="962.6" y1="268.5" x2="962.6" y2="278.5"/><line class="ln tick" x1="964.6" y1="268.5" x2="964.6" y2="276.5"/><line class="ln tick" x1="979.6" y1="269.5" x2="979.6" y2="277.5"/><line class="ln tick" x1="991.6" y1="299.5" x2="991.6" y2="308.5"/><line class="ln route" x1="903.1" y1="294" x2="1000.1" y2="294"/><line class="ln route" x1="911.1" y1="320" x2="939.1" y2="320"/><line class="ln route" x1="911.1" y1="341" x2="939.1" y2="341"/><line class="ln route" x1="911.1" y1="362" x2="939.1" y2="362"/><line class="ln route" x1="911.1" y1="393" x2="939.1" y2="393"/><line class="ln route" x1="911.1" y1="414" x2="939.1" y2="414"/><line class="ln route" x1="846.1" y1="437" x2="939.1" y2="437"/><line class="ln route" x1="774.1" y1="446.5" x2="922.1" y2="446.5"/><line class="ln route" x1="774.1" y1="455" x2="925.1" y2="455"/><line class="ln route" x1="846.1" y1="461.5" x2="939.1" y2="461.5"/><line class="ln route" x1="923.6" y1="303.5" x2="923.6" y2="452.5"/><line class="ln route" x1="1000.6" y1="285.5" x2="1000.6" y2="327.5"/><line class="ln route" x1="992.1" y1="294" x2="1000.1" y2="294" marker-end="url(#ar)"/><line class="ln route" x1="931.1" y1="320" x2="939.1" y2="320" marker-end="url(#ar)"/><line class="ln route" x1="931.1" y1="341" x2="939.1" y2="341" marker-end="url(#ar)"/><line class="ln route" x1="931.1" y1="362" x2="939.1" y2="362" marker-end="url(#ar)"/><line class="ln route" x1="931.1" y1="393" x2="939.1" y2="393" marker-end="url(#ar)"/><line class="ln route" x1="931.1" y1="414" x2="939.1" y2="414" marker-end="url(#ar)"/><line class="ln route" x1="931.1" y1="437" x2="939.1" y2="437" marker-end="url(#ar)"/><line class="ln route" x1="914.1" y1="446.5" x2="922.1" y2="446.5" marker-end="url(#ar)"/><line class="ln route" x1="917.1" y1="455" x2="925.1" y2="455" marker-end="url(#ar)"/><line class="ln route" x1="931.1" y1="461.5" x2="939.1" y2="461.5" marker-end="url(#ar)"/><line class="ln route" x1="923.6" y1="444.5" x2="923.6" y2="452.5" marker-end="url(#ar)"/><line class="ln route" x1="1000.6" y1="319.5" x2="1000.6" y2="327.5" marker-end="url(#ar)"/></g></svg>